{"glyphs":{"$":{"x_min":0,"x_max":551,"ha":551,"o":"m 225 718 l 352 718 l 349 638 q 429 633 489 622 l 460 467 l 310 467 q 275 467 264 456 q 252 445 251 414 l 314 407 q 429 394 472 348 q 516 302 516 229 q 516 156 501 112 q 486 69 458 46 q 407 7 324 1 l 321 -100 l 192 -100 l 196 1 q 101 8 35 25 l 64 184 q 147 162 238 162 q 276 162 309 166 l 309 208 l 247 215 q 127 227 87 285 q 52 336 52 418 q 52 526 96 575 q 141 624 222 635 z"},"<":{"x_min":0,"x_max":600,"ha":600,"o":"m 432 587 l 499 453 l 252 315 l 252 308 l 499 171 l 432 37 l 107 221 l 107 403 z"},"'":{"x_min":0,"x_max":250,"ha":250,"o":"m 175 300 l 75 300 q 25 561 25 565 l 25 623 q 25 650 62 650 l 188 650 q 225 650 225 623 l 225 565 q 225 561 175 300 z"},"=":{"x_min":0,"x_max":600,"ha":600,"o":"m 72 121 l 72 265 l 527 265 l 527 121 z m 72 359 l 72 503 l 527 503 l 527 359 z"},"a":{"x_min":0,"x_max":567,"ha":567,"o":"m 287 515 q 527 515 527 350 l 527 0 l 427 0 l 370 57 q 341 23 291 4 q 241 -15 196 -15 q 152 -15 125 -8 q 98 -1 72 16 q 15 52 15 150 q 15 330 287 330 l 327 330 l 327 366 q 295 368 274 368 q 161 368 80 341 l 56 484 q 156 515 287 515 z m 217 172 l 217 131 l 258 131 q 302 131 314 141 q 327 151 327 167 l 327 214 l 286 214 q 250 214 234 206 q 217 199 217 172 z"},"L":{"x_min":0,"x_max":455,"ha":455,"o":"m 450 0 l 50 0 l 50 625 l 250 625 l 250 160 l 450 160 z"},"3":{"x_min":0,"x_max":600,"ha":600,"o":"m 349 405 l 349 470 q 319 475 252 475 q 185 475 85 454 l 59 602 q 181 640 295 640 q 393 640 437 628 q 481 616 502 599 q 548 560 548 481 q 548 381 465 337 l 465 332 q 564 291 564 183 q 564 130 548 92 q 531 55 506 34 q 481 14 440 2 q 379 -15 268 -15 q 158 -15 47 11 l 75 176 q 170 153 236 153 q 302 153 349 159 l 349 223 l 177 240 l 177 385 z"},"J":{"x_min":0,"x_max":366,"ha":366,"o":"m 20 0 l 0 160 l 83 160 q 114 160 122 168 q 131 177 131 190 l 131 465 l 48 465 l 48 625 l 331 625 l 331 165 q 331 84 291 42 q 251 0 176 0 z"},"V":{"x_min":0,"x_max":602,"ha":602,"o":"m 391 625 l 602 625 l 447 0 l 155 0 l 0 625 l 211 625 l 296 228 l 305 228 z"},"\"":{"x_min":0,"x_max":500,"ha":500,"o":"m 175 300 l 75 300 q 25 561 25 565 l 25 623 q 25 650 62 650 l 188 650 q 225 650 225 623 l 225 565 q 225 561 175 300 z m 425 300 l 325 300 q 275 561 275 565 l 275 623 q 275 650 312 650 l 438 650 q 475 650 475 623 l 475 565 q 475 561 425 300 z"},"7":{"x_min":0,"x_max":600,"ha":600,"o":"m 554 500 l 361 0 l 135 0 l 314 451 l 74 448 l 59 625 l 554 625 z"},"S":{"x_min":0,"x_max":577,"ha":577,"o":"m 25 11 l 53 176 q 145 153 218 153 q 292 153 337 159 l 337 209 l 247 217 q 125 228 80 276 q 34 323 34 416 q 34 544 90 592 q 145 640 278 640 q 411 640 518 615 l 493 455 q 400 470 344 470 q 288 470 249 465 l 249 416 l 321 409 q 452 396 502 346 q 552 297 552 209 q 552 146 535 102 q 518 59 494 36 q 471 14 428 2 q 385 -10 352 -12 q 320 -15 266 -15 q 136 -15 25 11 z"},"}":{"x_min":0,"x_max":339,"ha":339,"o":"m 113 8 l 98 102 q 98 192 154 225 l 154 237 q 98 270 98 360 l 113 456 q 33 463 30 463 l 39 610 q 170 610 214 595 q 266 577 280 548 q 289 529 289 505 l 274 303 l 339 287 l 339 175 l 274 159 l 289 -41 q 289 -91 252 -113 q 214 -136 171 -140 q 108 -146 39 -146 l 30 1 z"},"Z":{"x_min":0,"x_max":589,"ha":589,"o":"m 564 0 l 25 0 l 25 125 l 281 459 l 278 465 l 68 465 l 50 625 l 560 625 l 560 500 l 307 166 l 310 160 l 564 160 z"},"x":{"x_min":0,"x_max":540,"ha":540,"o":"m 213 500 l 269 376 l 275 376 l 327 500 l 535 500 l 410 244 l 540 0 l 332 0 l 270 135 l 265 135 l 208 0 l 0 0 l 130 258 l 5 500 z"},")":{"x_min":0,"x_max":314,"ha":314,"o":"m 30 463 l 40 610 q 294 577 294 232 q 294 -113 40 -146 l 30 1 q 48 9 58 17 q 69 25 84 48 q 114 94 114 232 q 114 367 84 414 q 70 437 58 446 q 47 456 30 463 z"},"&":{"x_min":0,"x_max":664,"ha":664,"o":"m 439 -115 l 414 21 q 293 -15 220 -15 q 45 -15 45 180 q 45 345 169 363 l 169 367 l 84 396 q 84 529 132 577 q 179 625 272 625 q 366 625 466 604 l 437 457 l 348 457 q 315 457 301 448 q 287 440 287 415 l 287 382 l 654 382 l 632 242 l 562 242 l 562 -100 z m 335 156 q 364 156 389 160 l 374 242 l 287 242 l 287 201 q 287 156 335 156 z"},"_":{"x_min":0,"x_max":595,"ha":595,"o":"m 25 -135 l 25 -27 q 25 0 42 8 q 58 15 94 15 l 570 15 l 570 -93 q 570 -120 554 -128 q 537 -135 501 -135 z"},"v":{"x_min":0,"x_max":520,"ha":520,"o":"m 125 0 l 0 500 l 200 500 l 255 175 l 265 175 l 320 500 l 520 500 l 395 0 z"},"O":{"x_min":0,"x_max":630,"ha":630,"o":"m 20 312 q 20 483 84 562 q 148 640 315 640 q 482 640 546 562 q 610 483 610 312 q 610 227 596 169 q 583 111 550 68 q 517 25 459 5 q 401 -15 315 -15 q 229 -15 171 5 q 113 25 80 68 q 47 111 34 169 q 20 227 20 312 z m 235 416 l 235 156 l 318 156 q 359 156 378 166 q 396 175 396 209 l 396 469 l 312 469 q 272 469 254 460 q 235 450 235 416 z"},"(":{"x_min":0,"x_max":314,"ha":314,"o":"m 274 620 l 284 473 q 267 466 256 456 q 244 447 230 424 q 200 377 200 242 q 200 104 230 58 q 245 35 256 27 q 266 19 284 11 l 274 -136 q 20 -103 20 242 q 20 587 274 620 z"},"C":{"x_min":0,"x_max":500,"ha":500,"o":"m 465 179 l 480 11 q 417 -15 322 -15 q 227 -15 170 5 q 112 25 79 68 q 46 111 33 169 q 20 227 20 312 q 20 397 33 456 q 46 514 79 557 q 143 640 314 640 q 352 640 404 632 q 455 625 480 614 l 450 461 q 385 475 331 475 q 277 475 256 465 q 235 455 235 425 l 235 163 q 274 155 314 155 q 399 155 465 179 z"},"W":{"x_min":0,"x_max":821,"ha":821,"o":"m 612 625 l 821 625 l 723 0 l 462 0 l 416 230 l 404 230 l 359 0 l 98 0 l 0 625 l 209 625 l 256 276 l 262 276 l 334 625 l 487 625 l 558 276 l 564 276 z"},"A":{"x_min":0,"x_max":609,"ha":609,"o":"m 199 0 l -12 0 l 150 625 l 459 625 l 621 0 l 410 0 l 387 99 l 222 99 z m 299 433 l 258 258 l 350 258 l 310 433 z"},"f":{"x_min":0,"x_max":358,"ha":358,"o":"m 280 542 l 280 500 l 340 500 l 340 370 l 280 370 l 280 0 l 80 0 l 80 370 l 30 370 l 30 500 l 80 500 l 87 560 q 101 675 263 675 q 305 675 373 665 l 362 534 z"},"Q":{"x_min":0,"x_max":630,"ha":630,"o":"m 385 23 l 300 0 q 132 0 74 86 q 44 129 32 182 q 20 236 20 312 q 20 483 84 562 q 148 640 314 640 q 480 640 545 561 q 610 482 610 312 q 610 185 557 107 l 629 65 l 577 -50 l 385 -15 z m 235 156 l 318 156 q 359 156 378 166 q 396 175 396 209 l 396 469 l 312 469 q 272 469 254 460 q 235 450 235 416 z"},"w":{"x_min":0,"x_max":800,"ha":800,"o":"m 114 0 l 14 500 l 210 500 l 251 203 l 262 203 l 325 500 l 475 500 l 531 203 l 542 203 l 590 500 l 786 500 l 686 0 l 440 0 l 401 215 l 393 215 l 350 0 z"},"-":{"x_min":0,"x_max":350,"ha":350,"o":"m 25 200 l 25 308 q 25 335 42 342 q 58 350 94 350 l 325 350 l 325 242 q 325 215 308 208 q 292 200 256 200 z"},"E":{"x_min":0,"x_max":530,"ha":530,"o":"m 450 236 l 250 236 l 250 160 l 495 160 l 495 0 l 50 0 l 50 625 l 490 625 l 465 465 l 250 465 l 250 381 l 450 381 z"},"s":{"x_min":0,"x_max":526,"ha":526,"o":"m 480 484 l 457 348 q 379 370 301 370 q 277 370 233 366 l 233 334 q 395 334 453 286 q 482 262 494 234 q 506 205 506 164 q 506 124 496 92 q 487 60 468 41 q 448 22 427 10 q 406 -2 372 -7 q 319 -15 249 -15 q 125 -15 25 14 l 50 156 q 134 130 232 130 q 277 130 314 134 l 314 166 q 154 166 94 208 q 33 250 33 348 q 33 445 98 480 q 162 515 274 515 q 386 515 480 484 z"},">":{"x_min":0,"x_max":600,"ha":600,"o":"m 174 37 l 107 171 l 354 308 l 354 315 l 107 453 l 174 587 l 499 403 l 499 221 z"},"l":{"x_min":0,"x_max":309,"ha":309,"o":"m 250 665 l 250 143 q 282 137 299 136 l 290 -11 q 162 -11 121 4 q 70 23 58 52 q 50 70 50 94 l 50 650 z"},"8":{"x_min":0,"x_max":600,"ha":600,"o":"m 544 459 q 544 364 477 315 l 477 308 q 515 290 540 252 q 565 214 565 171 q 565 -15 300 -15 q 35 -15 35 171 q 35 214 60 252 q 85 290 123 308 l 123 315 q 56 362 56 459 q 56 525 92 567 q 128 609 180 624 q 232 640 300 640 q 368 640 420 624 q 472 609 508 567 q 544 525 544 459 z m 350 201 l 281 234 q 267 240 261 240 q 250 240 250 223 l 250 136 l 291 136 q 324 136 337 144 q 350 151 350 178 z m 250 423 l 315 389 q 323 385 330 385 q 350 385 350 403 l 350 484 l 309 484 q 276 484 263 476 q 250 469 250 442 z"},"\\":{"x_min":0,"x_max":503,"ha":503,"o":"m 389 -15 l 0 665 l 71 665 q 90 665 98 660 q 106 654 114 640 l 503 -40 l 432 -40 q 413 -40 405 -34 q 397 -29 389 -15 z"},"e":{"x_min":0,"x_max":565,"ha":565,"o":"m 245 170 l 245 135 q 275 132 305 132 q 398 132 493 162 l 517 15 q 405 -15 295 -15 q 155 -15 92 50 q 30 116 30 250 q 30 384 92 450 q 155 515 294 515 q 434 515 487 477 q 540 439 540 335 q 540 247 476 208 q 413 170 245 170 z m 245 327 l 245 286 l 286 286 q 322 286 338 294 q 355 301 355 328 l 355 369 l 314 369 q 278 369 262 362 q 245 354 245 327 z"},"b":{"x_min":0,"x_max":595,"ha":595,"o":"m 50 25 l 50 650 l 250 665 l 250 499 q 288 515 350 515 q 411 515 455 492 q 499 469 522 429 q 565 354 565 250 q 565 109 500 47 q 435 -15 303 -15 q 171 -15 50 25 z m 250 332 l 250 131 l 281 131 q 317 131 334 138 q 350 146 350 173 l 350 369 l 319 369 q 297 369 284 367 q 271 365 261 356 q 251 348 250 332 z"},"m":{"x_min":0,"x_max":854,"ha":854,"o":"m 330 350 l 316 350 q 293 350 282 348 q 270 346 260 336 q 250 325 250 304 l 250 0 l 50 0 l 50 500 l 150 500 l 195 454 q 256 515 355 515 q 454 515 498 474 q 559 515 640 515 q 720 515 765 484 q 810 454 810 400 l 810 0 l 610 0 l 610 350 l 596 350 q 575 350 563 348 q 551 346 541 337 q 531 328 530 310 l 530 0 l 330 0 z"},"#":{"x_min":0,"x_max":746,"ha":746,"o":"m 425 665 l 349 474 l 529 474 l 595 640 q 600 650 604 654 q 615 665 638 665 l 689 665 l 613 474 l 746 474 l 728 426 q 718 402 706 398 q 700 397 689 395 l 582 395 l 516 228 l 649 228 l 631 181 q 623 163 615 158 q 607 152 592 150 l 485 150 l 420 -15 q 415 -25 411 -29 q 400 -40 377 -40 l 326 -40 l 401 150 l 221 150 l 156 -15 q 151 -25 147 -29 q 136 -40 113 -40 l 62 -40 l 137 150 l 0 150 l 19 197 q 26 215 34 220 q 43 226 58 228 l 168 228 l 234 395 l 97 395 l 116 443 q 126 467 138 470 q 144 472 155 474 l 265 474 l 331 640 q 336 650 340 654 q 351 665 374 665 z m 318 395 l 252 228 l 432 228 l 498 395 z"},",":{"x_min":0,"x_max":277,"ha":277,"o":"m 247 99 l 247 87 q 244 43 222 0 q 215 -13 214 -15 l 146 -151 l 57 -122 l 90 22 q 55 28 42 46 q 30 63 30 110 q 30 158 52 182 q 74 206 138 206 q 203 206 225 182 q 247 158 247 99 z"},"n":{"x_min":0,"x_max":595,"ha":595,"o":"m 150 500 l 200 450 q 293 515 400 515 q 470 515 510 484 q 550 454 550 400 l 550 0 l 350 0 l 350 350 l 319 350 q 285 350 268 342 q 250 335 250 312 l 250 0 l 50 0 l 50 500 z"},"h":{"x_min":0,"x_max":595,"ha":595,"o":"m 250 308 l 250 0 l 50 0 l 50 650 l 250 665 l 250 482 q 314 515 392 515 q 470 515 510 484 q 550 454 550 400 l 550 0 l 350 0 l 350 350 l 319 350 q 283 350 266 342 q 250 335 250 308 z"},"z":{"x_min":0,"x_max":530,"ha":530,"o":"m 25 100 l 221 344 l 218 350 l 60 350 l 45 500 l 499 500 l 499 400 l 306 156 l 309 150 l 505 150 l 505 0 l 25 0 z"},"B":{"x_min":0,"x_max":592,"ha":592,"o":"m 50 0 l 50 625 l 374 625 q 464 625 502 590 q 541 555 541 488 q 541 421 516 384 q 492 348 451 337 l 451 331 q 572 310 572 166 q 572 91 532 46 q 492 0 409 0 z m 328 249 l 250 249 l 250 147 l 327 147 q 369 147 369 198 q 369 249 328 249 z m 313 488 l 250 488 l 250 395 l 312 395 q 350 395 350 442 q 350 488 313 488 z"},"K":{"x_min":0,"x_max":593,"ha":593,"o":"m 250 272 l 250 0 l 50 0 l 50 625 l 250 625 l 250 370 l 254 370 q 256 400 264 418 l 362 625 l 578 625 l 428 318 l 583 0 l 367 0 l 264 224 q 256 242 254 272 z"},"R":{"x_min":0,"x_max":615,"ha":615,"o":"m 595 0 l 375 0 l 293 186 l 250 186 l 250 0 l 50 0 l 50 625 l 365 625 q 580 625 580 406 q 580 256 487 208 z m 250 465 l 250 340 l 296 340 q 332 340 348 348 q 365 355 365 382 l 365 423 q 365 450 348 458 q 332 465 296 465 z"},"T":{"x_min":0,"x_max":500,"ha":500,"o":"m 495 465 l 350 465 l 350 0 l 150 0 l 150 465 l 5 465 l 5 625 l 495 625 z"},"P":{"x_min":0,"x_max":590,"ha":590,"o":"m 380 151 l 250 151 l 250 0 l 50 0 l 50 625 l 365 625 q 580 625 580 394 q 580 267 524 206 q 503 183 466 167 q 429 151 380 151 z m 250 465 l 250 311 l 296 311 q 332 311 348 318 q 365 326 365 353 l 365 423 q 365 450 348 458 q 332 465 296 465 z"},"|":{"x_min":0,"x_max":420,"ha":420,"o":"m 150 -180 l 150 704 l 270 704 l 270 -180 z"},"t":{"x_min":0,"x_max":364,"ha":364,"o":"m 20 371 l 20 500 l 70 500 l 70 580 l 270 630 l 270 500 l 339 500 l 339 371 l 270 371 l 270 143 q 296 138 329 136 l 320 -11 q 183 -11 142 4 q 91 22 78 52 q 70 70 70 94 l 70 371 z"},"M":{"x_min":0,"x_max":811,"ha":811,"o":"m 234 0 l 25 0 l 63 625 l 324 625 l 402 307 l 409 307 l 487 625 l 748 625 l 786 0 l 577 0 l 565 303 l 558 303 l 482 0 l 329 0 l 252 303 l 246 303 z"},"g":{"x_min":0,"x_max":536,"ha":536,"o":"m 23 -135 l 49 14 q 134 -15 248 -15 q 282 -15 296 -13 l 296 22 q 207 22 180 30 q 152 37 144 44 q 135 52 134 57 q 132 62 132 71 l 162 157 q 90 170 52 211 q 15 252 15 340 q 15 427 74 471 q 133 515 266 515 q 314 515 351 509 l 438 576 l 543 475 l 486 408 q 499 373 499 318 q 499 239 460 200 q 420 162 319 154 l 315 130 q 423 124 468 98 q 512 71 512 0 q 512 -121 395 -150 q 337 -165 238 -165 q 140 -165 23 -135 z m 203 340 l 203 275 l 234 275 q 270 275 286 282 q 303 290 303 317 l 303 382 l 272 382 q 236 382 220 374 q 203 367 203 340 z"},"y":{"x_min":0,"x_max":520,"ha":520,"o":"m 112 52 l 0 500 l 200 500 l 255 175 l 265 175 l 320 500 l 520 500 l 395 0 q 367 -98 325 -132 q 283 -165 204 -165 l 10 -165 l 10 -35 l 104 -17 q 176 -1 198 19 q 210 30 218 46 l 217 52 z"},"@":{"x_min":0,"x_max":867,"ha":867,"o":"m 537 187 l 537 131 l 548 131 q 582 131 598 138 q 615 144 617 167 l 617 229 l 606 229 q 570 229 554 222 q 537 214 537 187 z m 40 176 l 40 259 q 40 481 210 557 q 307 600 476 600 q 645 600 731 553 q 817 506 817 407 l 817 0 l 717 0 l 660 63 q 600 -9 484 -9 q 331 -9 331 159 q 331 350 577 350 l 617 350 l 617 423 q 565 433 498 433 q 432 433 406 432 q 381 430 349 422 q 317 414 299 400 q 281 385 268 357 q 255 329 255 290 l 255 93 q 255 54 268 26 q 281 -2 299 -16 q 317 -31 349 -39 q 393 -50 472 -50 l 660 -50 l 660 -144 q 555 -165 470 -165 q 384 -165 324 -156 q 264 -146 210 -122 q 156 -98 120 -60 q 40 23 40 176 z"},"p":{"x_min":0,"x_max":595,"ha":595,"o":"m 50 500 l 150 500 l 187 450 q 231 515 350 515 q 411 515 455 492 q 499 469 522 429 q 565 354 565 250 q 565 123 510 58 q 488 33 451 16 q 414 0 365 0 l 250 0 l 250 -150 l 50 -165 z m 250 332 l 250 131 l 281 131 q 317 131 334 138 q 350 146 350 173 l 350 369 l 319 369 q 297 369 284 367 q 271 365 261 356 q 251 348 250 332 z"},"X":{"x_min":0,"x_max":592,"ha":592,"o":"m 227 625 l 296 458 l 306 458 l 375 625 l 592 625 l 453 323 l 592 0 l 370 0 l 295 180 l 286 180 l 212 0 l 0 0 l 136 317 l 0 625 z"},"*":{"x_min":0,"x_max":536,"ha":536,"o":"m 341 580 l 312 491 l 387 548 l 441 564 q 449 566 452 566 q 470 566 479 538 l 502 467 q 506 455 506 446 q 506 427 489 422 l 433 406 l 338 406 l 416 351 l 449 304 q 455 294 455 285 q 455 276 435 260 l 375 216 q 360 204 348 204 q 336 204 328 215 l 286 263 l 264 345 l 238 262 l 204 216 q 196 205 184 205 q 173 205 158 216 l 97 260 q 76 275 76 286 q 76 296 82 304 l 117 351 l 190 404 l 99 404 l 44 422 q 26 427 26 446 q 26 455 30 466 l 53 538 q 63 567 80 567 q 84 567 90 565 l 146 547 l 220 492 l 191 580 l 191 638 q 191 665 228 665 l 304 665 q 341 665 341 638 z"},"Y":{"x_min":0,"x_max":560,"ha":560,"o":"m 221 625 l 276 405 l 283 405 l 339 625 l 560 625 l 380 170 l 380 0 l 180 0 l 180 170 l 0 625 z"},"c":{"x_min":0,"x_max":459,"ha":459,"o":"m 417 150 l 429 6 q 377 -15 295 -15 q 155 -15 92 50 q 30 116 30 250 q 30 384 92 450 q 155 515 295 515 q 382 515 429 494 l 405 358 q 352 369 321 369 q 245 369 245 316 l 245 137 q 274 131 320 131 q 365 131 417 150 z"},"/":{"x_min":0,"x_max":503,"ha":503,"o":"m 503 665 l 114 -15 q 109 -25 105 -29 q 94 -40 71 -40 l 0 -40 l 389 640 q 394 650 398 654 q 409 665 432 665 z"},"[":{"x_min":0,"x_max":339,"ha":339,"o":"m 50 -41 l 50 505 q 50 555 86 577 q 125 600 168 604 q 231 610 300 610 l 309 463 q 306 463 226 456 l 226 8 l 309 1 l 300 -146 q 169 -146 126 -131 q 73 -113 59 -84 q 50 -65 50 -41 z"},"6":{"x_min":0,"x_max":600,"ha":600,"o":"m 350 178 l 350 257 l 309 257 q 276 257 263 250 q 250 242 250 215 l 250 136 l 291 136 q 324 136 337 144 q 350 151 350 178 z m 300 -15 q 149 -15 92 63 q 35 141 35 312 q 35 399 48 456 q 61 513 95 556 q 160 640 349 640 q 387 640 450 632 q 512 623 542 614 l 512 461 q 431 475 358 475 q 284 475 250 466 l 250 415 l 300 415 q 360 415 404 407 q 447 399 486 377 q 525 355 545 310 q 565 266 565 200 q 565 134 545 90 q 525 45 486 23 q 447 1 404 -7 q 360 -15 300 -15 z"},"r":{"x_min":0,"x_max":375,"ha":375,"o":"m 50 500 l 150 500 l 205 444 q 264 498 353 515 l 365 326 q 341 325 302 314 q 264 303 250 286 l 250 0 l 50 0 z"},"2":{"x_min":0,"x_max":600,"ha":600,"o":"m 75 453 l 49 602 q 175 640 300 640 q 350 640 384 637 q 417 634 453 622 q 489 610 510 589 q 558 541 558 442 q 558 343 502 296 q 446 249 266 188 l 266 160 l 548 160 l 548 0 l 35 0 l 35 125 q 35 181 56 232 q 69 261 119 302 q 146 325 192 346 q 237 367 278 386 q 318 404 343 416 l 343 470 q 298 475 260 475 q 168 475 75 453 z"},"{":{"x_min":0,"x_max":339,"ha":339,"o":"m 241 102 l 226 8 l 309 1 l 300 -146 q 169 -146 126 -131 q 73 -113 59 -84 q 50 -65 50 -41 l 65 159 l 0 175 l 0 287 l 65 303 l 50 505 q 50 555 86 577 q 125 600 168 604 q 231 610 300 610 l 309 463 q 306 463 226 456 l 241 360 q 241 270 185 237 l 185 225 q 241 192 241 102 z"},"9":{"x_min":0,"x_max":600,"ha":600,"o":"m 249 447 l 249 376 l 290 376 q 323 376 336 384 q 349 391 349 418 l 349 489 l 308 489 q 275 489 262 482 q 249 474 249 447 z m 349 217 l 299 218 q 139 221 85 274 q 34 323 34 425 q 34 557 113 602 q 152 624 196 632 q 239 640 299 640 q 450 640 507 562 q 564 484 564 312 q 564 141 507 63 q 450 -15 307 -15 q 164 -15 53 11 l 81 176 q 176 153 239 153 q 302 153 349 159 z"}," ":{"x_min":0,"x_max":150,"ha":150,"o":""},"I":{"x_min":0,"x_max":300,"ha":300,"o":"m 50 0 l 50 625 l 250 625 l 250 0 z"},"H":{"x_min":0,"x_max":650,"ha":650,"o":"m 400 0 l 400 221 l 250 221 l 250 0 l 50 0 l 50 625 l 250 625 l 250 404 l 400 404 l 400 625 l 600 625 l 600 0 z"},"4":{"x_min":0,"x_max":600,"ha":600,"o":"m 324 0 l 324 100 l 16 100 l 16 225 l 170 625 l 524 625 l 524 272 l 589 272 l 589 100 l 524 100 l 524 0 z m 314 475 l 225 272 l 324 272 l 324 475 z"},"~":{"x_min":0,"x_max":600,"ha":600,"o":"m 118 202 l 12 293 q 55 350 83 376 q 133 423 190 423 q 228 423 292 388 q 355 354 385 354 q 433 354 481 420 l 588 330 q 556 272 509 238 q 462 203 410 203 q 359 203 297 236 q 235 268 213 268 q 191 268 169 252 q 147 235 118 202 z"},"D":{"x_min":0,"x_max":645,"ha":645,"o":"m 50 0 l 50 625 l 330 625 q 499 625 562 553 q 625 481 625 312 q 625 144 562 72 q 499 0 330 0 z m 333 465 l 250 465 l 250 160 l 333 160 q 374 160 392 170 q 411 179 411 213 l 411 412 q 411 446 392 456 q 374 465 333 465 z"},"^":{"x_min":0,"x_max":600,"ha":600,"o":"m 548 262 l 414 218 l 306 442 l 300 442 l 192 218 l 58 262 l 212 587 l 394 587 z"},"F":{"x_min":0,"x_max":470,"ha":470,"o":"m 420 232 l 250 232 l 250 0 l 50 0 l 50 625 l 460 625 l 435 465 l 250 465 l 250 381 l 420 381 z"},"`":{"x_min":0,"x_max":429,"ha":429,"o":"m 288 539 l 114 574 q 98 577 88 586 l 43 625 q 39 631 39 638 q 39 644 48 654 l 111 728 q 120 739 127 739 q 134 739 140 735 l 329 596 z"},"k":{"x_min":0,"x_max":560,"ha":560,"o":"m 334 0 l 257 198 l 250 198 l 250 0 l 50 0 l 50 650 l 250 665 l 250 335 l 257 335 l 329 500 l 545 500 l 429 262 l 550 0 z"},"u":{"x_min":0,"x_max":590,"ha":590,"o":"m 240 500 l 240 131 l 271 131 q 307 131 324 138 q 340 146 340 173 l 340 500 l 540 500 l 540 0 l 440 0 l 382 57 q 322 -15 211 -15 q 122 -15 81 23 q 40 61 40 150 l 40 500 z"},"]":{"x_min":0,"x_max":339,"ha":339,"o":"m 289 505 l 289 -41 q 289 -91 252 -113 q 214 -136 171 -140 q 108 -146 39 -146 l 30 1 l 113 8 l 113 456 q 33 463 30 463 l 39 610 q 170 610 214 595 q 266 577 280 548 q 289 529 289 505 z"},"U":{"x_min":0,"x_max":607,"ha":607,"o":"m 235 625 l 235 156 l 306 156 q 344 156 358 166 q 372 175 372 209 l 372 625 l 572 625 l 572 274 q 572 189 561 137 q 550 85 520 49 q 490 13 438 -1 q 386 -15 303 -15 q 220 -15 168 -1 q 117 13 87 49 q 57 85 46 137 q 35 189 35 274 l 35 625 z"},"N":{"x_min":0,"x_max":655,"ha":655,"o":"m 417 0 l 264 222 q 256 233 254 270 l 250 270 l 250 0 l 50 0 l 50 625 l 238 625 l 391 403 q 399 392 401 355 l 405 355 l 405 625 l 605 625 l 605 0 z"},"+":{"x_min":0,"x_max":600,"ha":600,"o":"m 72 240 l 72 384 l 227 384 l 227 539 l 371 539 l 371 384 l 527 384 l 527 240 l 371 240 l 371 84 l 227 84 l 227 240 z"},"G":{"x_min":0,"x_max":600,"ha":600,"o":"m 370 184 l 370 211 l 319 211 l 319 364 l 560 364 l 560 30 q 441 -15 314 -15 q 143 -15 79 68 q 46 111 33 169 q 20 227 20 312 q 20 398 34 456 q 47 513 82 556 q 148 640 337 640 q 376 640 438 632 q 501 624 530 614 l 500 461 q 419 475 354 475 q 288 475 262 465 q 235 455 235 425 l 235 142 l 301 142 q 337 142 354 150 q 370 157 370 184 z"},"q":{"x_min":0,"x_max":595,"ha":595,"o":"m 445 500 l 545 500 l 545 -151 l 345 -165 l 345 0 q 306 -15 245 -15 q 184 -15 140 8 q 96 32 73 72 q 30 148 30 260 q 30 371 86 443 q 143 515 265 515 q 352 515 417 472 z m 245 327 l 245 131 l 276 131 q 312 131 328 138 q 345 146 345 173 l 345 369 l 314 369 q 278 369 262 362 q 245 354 245 327 z"},"d":{"x_min":0,"x_max":595,"ha":595,"o":"m 545 0 l 445 0 l 402 42 q 358 -15 245 -15 q 184 -15 140 8 q 96 31 73 71 q 30 146 30 250 q 30 377 86 442 q 107 467 144 484 q 181 500 230 500 l 345 500 l 345 650 l 545 665 z m 245 327 l 245 131 l 276 131 q 310 131 326 138 q 343 144 345 167 l 345 369 l 314 369 q 278 369 262 362 q 245 354 245 327 z"},"1":{"x_min":0,"x_max":600,"ha":600,"o":"m 566 0 l 66 0 l 66 160 l 244 160 l 244 425 l 66 413 l 66 573 l 296 625 l 454 625 l 454 160 l 566 160 z"},"5":{"x_min":0,"x_max":600,"ha":600,"o":"m 42 11 l 70 176 q 165 153 236 153 q 308 153 354 159 l 354 209 l 279 217 q 155 230 110 260 q 66 289 66 365 q 66 376 76 625 l 531 625 l 516 453 l 279 467 l 279 416 l 338 409 q 469 393 519 344 q 569 296 569 209 q 569 146 552 102 q 535 59 512 36 q 488 14 445 2 q 402 -10 370 -12 q 337 -15 283 -15 q 153 -15 42 11 z"}}}
